<svg width="38" height="38" viewBox="0 0 38 38" fill="none" xmlns="http://www.w3.org/2000/svg">
<path d="M22.167 28.4999C22.587 28.4999 22.9897 28.3331 23.2866 28.0362C23.5836 27.7392 23.7504 27.3365 23.7504 26.9166V23.7499C23.7504 23.33 23.5836 22.9273 23.2866 22.6303C22.9897 22.3334 22.587 22.1666 22.167 22.1666C21.7471 22.1666 21.3444 22.3334 21.0474 22.6303C20.7505 22.9273 20.5837 23.33 20.5837 23.7499V26.9166C20.5837 27.3365 20.7505 27.7392 21.0474 28.0362C21.3444 28.3331 21.7471 28.4999 22.167 28.4999ZM15.8337 28.4999C16.2536 28.4999 16.6564 28.3331 16.9533 28.0362C17.2502 27.7392 17.417 27.3365 17.417 26.9166V23.7499C17.417 23.33 17.2502 22.9273 16.9533 22.6303C16.6564 22.3334 16.2536 22.1666 15.8337 22.1666C15.4138 22.1666 15.011 22.3334 14.7141 22.6303C14.4172 22.9273 14.2504 23.33 14.2504 23.7499V26.9166C14.2504 27.3365 14.4172 27.7392 14.7141 28.0362C15.011 28.3331 15.4138 28.4999 15.8337 28.4999ZM30.0837 9.49991H27.8987L25.1595 4.03741C25.0758 3.83641 24.9516 3.65484 24.7945 3.50403C24.6375 3.35322 24.451 3.23643 24.2468 3.16094C24.0426 3.08546 23.825 3.05291 23.6076 3.06532C23.3902 3.07773 23.1777 3.13485 22.9834 3.23309C22.7891 3.33133 22.6172 3.4686 22.4783 3.6363C22.3395 3.80401 22.2367 3.99855 22.1764 4.20777C22.1161 4.41699 22.0997 4.63639 22.128 4.85227C22.1564 5.06814 22.2289 5.27585 22.3412 5.46241L24.352 9.49991H13.6487L15.6595 5.46241C15.8132 5.09335 15.8216 4.6798 15.683 4.30481C15.5444 3.92982 15.2691 3.62115 14.9123 3.44076C14.5555 3.26037 14.1437 3.22162 13.7596 3.33229C13.3754 3.44296 13.0473 3.69486 12.8412 4.03741L10.102 9.49991H7.91703C6.79791 9.51693 5.72075 9.92859 4.87553 10.6623C4.0303 11.396 3.47131 12.4046 3.29713 13.5102C3.12296 14.6158 3.3448 15.7474 3.92352 16.7054C4.50225 17.6634 5.40068 18.3863 6.46036 18.7466L7.63203 30.5582C7.75018 31.734 8.30233 32.8235 9.18064 33.6139C10.059 34.4044 11.2004 34.8392 12.382 34.8332H25.6504C26.832 34.8392 27.9734 34.4044 28.8518 33.6139C29.7301 32.8235 30.2822 31.734 30.4004 30.5582L31.572 18.7466C32.634 18.3853 33.5339 17.6597 34.1122 16.6985C34.6905 15.7373 34.91 14.6024 34.7317 13.4949C34.5534 12.3874 33.9889 11.3787 33.1382 10.6475C32.2875 9.91627 31.2054 9.50975 30.0837 9.49991V9.49991ZM27.2179 30.2416C27.1785 30.6335 26.9944 30.9967 26.7017 31.2601C26.4089 31.5236 26.0284 31.6686 25.6345 31.6666H12.3662C11.9723 31.6686 11.5918 31.5236 11.2991 31.2601C11.0063 30.9967 10.8222 30.6335 10.7829 30.2416L9.6587 18.9999H28.342L27.2179 30.2416ZM30.0837 15.8332H7.91703C7.4971 15.8332 7.09438 15.6664 6.79745 15.3695C6.50051 15.0726 6.3337 14.6698 6.3337 14.2499C6.3337 13.83 6.50051 13.4273 6.79745 13.1303C7.09438 12.8334 7.4971 12.6666 7.91703 12.6666H30.0837C30.5036 12.6666 30.9064 12.8334 31.2033 13.1303C31.5002 13.4273 31.667 13.83 31.667 14.2499C31.667 14.6698 31.5002 15.0726 31.2033 15.3695C30.9064 15.6664 30.5036 15.8332 30.0837 15.8332Z" fill="white"/>
</svg>
